<?xml version="1.0" encoding="UTF-8" standalone="no"?>
<!-- Created with Inkscape (http://www.inkscape.org/) -->

<svg
   xmlns:dc="http://purl.org/dc/elements/1.1/"
   xmlns:cc="http://creativecommons.org/ns#"
   xmlns:rdf="http://www.w3.org/1999/02/22-rdf-syntax-ns#"
   xmlns:svg="http://www.w3.org/2000/svg"
   xmlns="http://www.w3.org/2000/svg"
   xmlns:sodipodi="http://sodipodi.sourceforge.net/DTD/sodipodi-0.dtd"
   xmlns:inkscape="http://www.inkscape.org/namespaces/inkscape"
   id="svg5024"
   version="1.1"
   inkscape:version="0.91 r13725"
   width="108"
   height="61"
   viewBox="0 0 108 61"
   sodipodi:docname="logo1-hover.png">
  <metadata
     id="metadata5030">
    <rdf:RDF>
      <cc:Work
         rdf:about="">
        <dc:format>image/svg+xml</dc:format>
        <dc:type
           rdf:resource="http://purl.org/dc/dcmitype/StillImage" />
      </cc:Work>
    </rdf:RDF>
  </metadata>
  <defs
     id="defs5028" />
  <sodipodi:namedview
     pagecolor="#ffffff"
     bordercolor="#666666"
     borderopacity="1"
     objecttolerance="10"
     gridtolerance="10"
     guidetolerance="10"
     inkscape:pageopacity="0"
     inkscape:pageshadow="2"
     inkscape:window-width="640"
     inkscape:window-height="480"
     id="namedview5026"
     showgrid="false" />
  <g
     id="g5757"
     transform="translate(2.0677966,-0.51694958)">
    <path
       style="fill:#eecccd"
       d="m 48.447507,36.271272 c 0.149906,-0.149429 2.942626,-0.227901 6.206042,-0.174382 l 5.933488,0.0973 -6.206042,0.174386 c -3.413322,0.09591 -6.08339,0.05212 -5.933488,-0.0973 z"
       id="path5769"
       inkscape:connector-curvature="0" />
    <path
       style="fill:#d4d4d4"
       d="m 44.697272,50.504616 c -8.303884,-4.839961 -8.847286,-5.218897 -9.174829,-6.397988 -0.19149,-0.689328 -0.329039,-1.88436 -0.305664,-2.655625 0.03361,-1.108934 0.103052,-0.935179 0.331945,0.830547 0.159194,1.228067 0.336388,2.277971 0.393764,2.333124 0.05738,0.05515 4.182831,2.487268 9.167677,5.404694 l 9.06336,5.30442 8.815951,-5.136179 c 4.848775,-2.824896 9.092029,-5.451033 9.429458,-5.835863 0.450362,-0.513623 0.613505,-0.563966 0.613505,-0.189317 0,0.280701 -0.276077,0.751614 -0.613505,1.046476 -1.209539,1.056951 -17.606456,10.440374 -18.243867,10.440374 -0.358123,0 -4.623131,-2.315097 -9.477795,-5.144663 z m 28.416501,-8.527751 c 0,-0.674856 0.07215,-0.950934 0.160328,-0.613505 0.08818,0.337428 0.08818,0.889583 0,1.227011 -0.08818,0.337428 -0.160328,0.06135 -0.160328,-0.613506 z m 0.357649,-2.979885 c 0.0039,-0.771264 0.07569,-1.045501 0.15954,-0.609418 0.08385,0.436084 0.08067,1.067118 -0.0071,1.402299 -0.08774,0.335181 -0.156356,-0.02163 -0.152465,-0.792881 z M 34.915278,38.471118 c 0,-0.867672 0.06837,-1.222629 0.151929,-0.788793 0.08356,0.433836 0.08356,1.14375 0,1.577586 -0.08356,0.433837 -0.151929,0.07888 -0.151929,-0.788793 z m 38.906719,-2.278735 c 0.0039,-0.771265 0.07569,-1.045503 0.159539,-0.609418 0.08385,0.436083 0.08067,1.067117 -0.0071,1.402298 -0.08775,0.335181 -0.156357,-0.02163 -0.152465,-0.79288 z M 34.564704,35.315946 c 0,-0.867673 0.06837,-1.222629 0.151928,-0.788793 0.08356,0.433836 0.08356,1.14375 0,1.577586 -0.08356,0.433836 -0.151928,0.07888 -0.151928,-0.788793 z M 74.172571,33.03721 c 0.0039,-0.771264 0.07569,-1.045502 0.15954,-0.609418 0.08385,0.436084 0.08067,1.067119 -0.0071,1.402299 -0.08774,0.33518 -0.156356,-0.02162 -0.152465,-0.792881 z M 34.218914,31.985486 c 0.0026,-0.96408 0.07072,-1.316868 0.151297,-0.783973 0.08058,0.532896 0.07843,1.321689 -0.0048,1.752874 -0.08321,0.431185 -0.149142,-0.0048 -0.146511,-0.968901 z m 40.297158,-1.928161 c 0,-0.674856 0.07215,-0.950934 0.160328,-0.613506 0.08818,0.337429 0.08818,0.889584 0,1.227012 -0.08818,0.337428 -0.160328,0.06135 -0.160328,-0.613506 z M 33.863554,28.655026 c 0,-0.867672 0.06837,-1.222629 0.151928,-0.788793 0.08356,0.433836 0.08356,1.14375 0,1.577586 -0.08356,0.433837 -0.151928,0.07888 -0.151928,-0.788793 z m 41.003092,-1.402299 c 0,-0.674856 0.07215,-0.950933 0.160329,-0.613505 0.08818,0.337428 0.08818,0.889583 0,1.227011 -0.08818,0.337428 -0.160329,0.06135 -0.160329,-0.613506 z M 33.242208,24.097555 c -0.138508,-1.564701 -0.176576,-2.920167 -0.0846,-3.012147 0.09198,-0.09198 0.279042,1.114492 0.415694,2.681049 0.136653,1.566556 0.174722,2.922022 0.0846,3.012147 -0.09012,0.09012 -0.277187,-1.116348 -0.415695,-2.681049 z m 41.982088,0.175287 c 0.0039,-0.771264 0.07569,-1.045502 0.159539,-0.609418 0.08385,0.436084 0.08067,1.067119 -0.0071,1.402299 -0.08775,0.33518 -0.156357,-0.02162 -0.152465,-0.792881 z m 0.350574,-2.804597 c 0.0039,-0.771265 0.07569,-1.045503 0.15954,-0.609419 0.08385,0.436085 0.08067,1.067119 -0.0071,1.402299 -0.08774,0.33518 -0.156349,-0.02162 -0.152458,-0.79288 z M 32.81183,19.189509 c 0,-0.867672 0.06837,-1.222629 0.151928,-0.788793 0.08356,0.433836 0.08356,1.14375 0,1.577586 -0.08356,0.433836 -0.151928,0.07888 -0.151928,-0.788793 z m 43.113615,-0.876437 c 0.0039,-0.771264 0.07569,-1.045502 0.15954,-0.609418 0.08385,0.436084 0.08067,1.067119 -0.0071,1.402299 -0.08775,0.33518 -0.156356,-0.02162 -0.152465,-0.792881 z M 32.45418,16.209624 c 0.0039,-0.771264 0.07568,-1.045502 0.159539,-0.609418 0.08385,0.436084 0.08067,1.067119 -0.0071,1.402298 -0.08775,0.335181 -0.156356,-0.02162 -0.152465,-0.79288 z m 43.788784,-0.175287 c 0,-0.482041 0.07957,-0.679239 0.176827,-0.438219 0.09725,0.24102 0.09725,0.635417 0,0.876437 -0.09725,0.24102 -0.176827,0.04382 -0.176827,-0.438218 z"
       id="path5767"
       inkscape:connector-curvature="0" />
    <path
       style="fill:#d9a3a4"
       d="m 72.709543,43.174663 c 0.01683,-0.408402 0.09989,-0.49147 0.211803,-0.211806 0.10127,0.253069 0.08882,0.55544 -0.02766,0.671936 -0.116496,0.116492 -0.19935,-0.09057 -0.184128,-0.46013 z m 0.350574,-2.804597 c 0.01683,-0.408402 0.09989,-0.491471 0.211803,-0.211807 0.101271,0.253069 0.08882,0.55544 -0.02766,0.671936 -0.116496,0.116493 -0.199351,-0.09057 -0.184129,-0.460129 z M 35.198046,39.318342 c 0.01682,-0.408402 0.09989,-0.491471 0.211806,-0.211807 0.101271,0.253069 0.08882,0.55544 -0.02768,0.671936 -0.116493,0.116492 -0.199351,-0.09057 -0.184129,-0.460129 z m 38.212646,-2.103449 c 0.01683,-0.408402 0.09989,-0.49147 0.211803,-0.211806 0.101271,0.253069 0.08882,0.55544 -0.02766,0.671936 -0.116496,0.116492 -0.199351,-0.09057 -0.184129,-0.46013 z M 34.847471,36.163169 c 0.01682,-0.408402 0.09989,-0.49147 0.211806,-0.211806 0.101271,0.253069 0.08882,0.55544 -0.02768,0.671936 -0.116493,0.116492 -0.199351,-0.09057 -0.184129,-0.46013 z m 38.913796,-1.752874 c 0.01683,-0.4084 0.09989,-0.491471 0.211803,-0.211806 0.10127,0.253071 0.08882,0.555442 -0.02766,0.671935 -0.116496,0.116493 -0.199351,-0.09056 -0.184129,-0.460129 z m -39.26437,-1.402299 c 0.01682,-0.4084 0.09989,-0.491471 0.211805,-0.211806 0.101271,0.253071 0.08882,0.555442 -0.02768,0.671935 -0.116493,0.116493 -0.199351,-0.09056 -0.184129,-0.460129 z m 15.747361,-1.110154 c -3.5e-4,-0.144612 1.301057,-0.22043 2.892242,-0.168485 5.243402,0.171174 5.76205,0.308002 1.403123,0.370169 -2.361998,0.03369 -4.294912,-0.05707 -4.295365,-0.201684 z M 34.146322,29.852823 c 0.01682,-0.408399 0.09989,-0.49147 0.211806,-0.211805 0.10127,0.253071 0.08882,0.555442 -0.02768,0.671935 -0.116494,0.116492 -0.199352,-0.09057 -0.184129,-0.46013 z m 40.316094,-1.402298 c 0.01683,-0.4084 0.09989,-0.491471 0.211803,-0.211806 0.101271,0.253071 0.08882,0.555442 -0.02766,0.671935 -0.116496,0.116493 -0.199351,-0.09057 -0.184129,-0.460129 z M 33.795747,26.697651 c 0.01682,-0.4084 0.09989,-0.491471 0.211806,-0.211806 0.101271,0.253071 0.08882,0.555442 -0.02768,0.671935 -0.116493,0.116493 -0.199351,-0.09056 -0.184129,-0.460129 z m 41.017244,-1.051724 c 0.01683,-0.4084 0.09989,-0.491471 0.211803,-0.211806 0.101271,0.253071 0.08882,0.555442 -0.02766,0.671935 -0.116496,0.116493 -0.199351,-0.09056 -0.184129,-0.460129 z m 0.350575,-3.155173 c 0.01683,-0.408399 0.09989,-0.49147 0.211803,-0.211805 0.10127,0.253071 0.08882,0.555442 -0.02766,0.671935 -0.116496,0.116493 -0.19935,-0.09057 -0.184128,-0.46013 z m 0.350574,-2.804597 c 0.01683,-0.4084 0.09989,-0.491471 0.211804,-0.211806 0.10127,0.253071 0.08882,0.555442 -0.02766,0.671935 -0.116496,0.116493 -0.199351,-0.09057 -0.184129,-0.460129 z M 32.744023,16.881559 c 0.01682,-0.4084 0.09989,-0.491471 0.211806,-0.211806 0.10127,0.253071 0.08882,0.555442 -0.02768,0.671935 -0.116493,0.116493 -0.199351,-0.09057 -0.184129,-0.460129 z m 43.120692,-0.350575 c 0.01683,-0.408399 0.09989,-0.49147 0.211803,-0.211805 0.101271,0.253071 0.08882,0.555441 -0.02766,0.671935 -0.116496,0.116492 -0.199351,-0.09057 -0.184129,-0.46013 z"
       id="path5765"
       inkscape:connector-curvature="0" />
    <path
       style="fill:#d66366"
       d="m 41.393071,43.482328 c 0.433836,-0.08356 1.14375,-0.08356 1.577586,0 0.433836,0.08356 0.07888,0.151928 -0.788793,0.151928 -0.867673,0 -1.22263,-0.06837 -0.788793,-0.151928 z m 23.130114,-0.0056 c 0.62235,-0.07745 1.726661,-0.07872 2.454023,-0.0028 0.727358,0.07589 0.218162,0.139255 -1.13155,0.140812 -1.349713,0.0014 -1.944828,-0.06054 -1.322473,-0.137983 z M 35.576298,41.626291 c 0,-0.482041 0.07957,-0.679239 0.176825,-0.438219 0.09725,0.24102 0.09725,0.635417 0,0.876437 -0.09725,0.24102 -0.176825,0.04382 -0.176825,-0.438218 z m -0.728827,-6.514847 c 0.01682,-0.4084 0.09989,-0.491471 0.211806,-0.211806 0.101271,0.253072 0.08882,0.55544 -0.02768,0.671936 -0.116493,0.116493 -0.199351,-0.09057 -0.184129,-0.46013 z m -0.350574,-3.155172 c 0.01682,-0.4084 0.09989,-0.491471 0.211805,-0.211806 0.101271,0.253071 0.08882,0.555442 -0.02768,0.671935 -0.116493,0.116493 -0.199351,-0.09056 -0.184129,-0.460129 z m -0.70115,-6.310345 c 0.01682,-0.4084 0.09989,-0.491471 0.211806,-0.211806 0.101271,0.253071 0.08882,0.555442 -0.02768,0.671935 -0.116493,0.116493 -0.199351,-0.09056 -0.184129,-0.460129 z m -0.350575,-3.155173 c 0.01682,-0.408399 0.09989,-0.49147 0.211806,-0.211805 0.101271,0.253071 0.08882,0.555442 -0.02768,0.671935 -0.116493,0.116493 -0.199351,-0.09057 -0.184129,-0.46013 z m -0.350574,-3.155172 c 0.01682,-0.4084 0.09989,-0.491471 0.211805,-0.211806 0.101271,0.253071 0.08882,0.555442 -0.02768,0.671935 -0.116493,0.116493 -0.199351,-0.09057 -0.184128,-0.460129 z"
       id="path5763"
       inkscape:connector-curvature="0" />
    <path
       style="fill:#a5a5a5;fill-opacity:1"
       d="m 44.993119,49.70505 -8.932996,-5.235967 -1.63899,-14.830878 c -0.901444,-8.156984 -1.535475,-14.9386 -1.408957,-15.070257 0.212311,-0.220937 20.629923,-7.9991286 20.997567,-7.9991286 0.08999,0 0.09581,1.3015086 0.01294,2.8922414 -0.148107,2.8431192 -0.259043,3.1449532 -6.53188,17.7715662 -3.509667,8.183629 -6.478249,15.265957 -6.596852,15.738503 l -0.215642,0.859182 2.592293,-0.255219 c 1.425763,-0.140373 2.609457,-0.281322 2.630432,-0.313217 0.02097,-0.0319 0.628872,-1.596146 1.350877,-3.476103 l 1.312737,-3.418103 2.768377,0 2.768376,0 0,9.29023 c 0,5.109626 -0.03944,9.288628 -0.08764,9.286671 -0.0482,-0.0021 -4.107492,-2.359743 -9.020642,-5.239521 z m 5.602538,-18.054563 c 0,-0.267636 3.173788,-8.389554 3.34545,-8.561219 0.08816,-0.08816 0.160297,1.837981 0.160297,4.280318 l 0,4.440613 -1.752873,0 c -0.964081,0 -1.752874,-0.07187 -1.752874,-0.159712 z"
       id="path5761"
       inkscape:connector-curvature="0" />
    <path
       style="fill:#c6c6c6;fill-opacity:1"
       d="m 54.101404,45.644743 0,-9.303384 3.187534,0.100798 3.187531,0.1008 1.469529,3.505747 1.469528,3.505748 2.354435,0.103661 c 1.400718,0.06167 2.354432,-0.03794 2.354432,-0.245914 0,-0.300327 -9.71411,-22.561194 -12.924347,-29.617444 -0.893093,-1.963066 -1.098642,-2.869346 -1.098642,-4.8440269 0,-2.3573923 0.02331,-2.4219801 0.788793,-2.1862172 0.433837,0.133617 5.410168,1.9050889 11.058515,3.9366041 10.157819,3.653416 10.267784,3.703551 10.091879,4.601086 -0.09781,0.499083 -0.913923,7.217768 -1.813579,14.930412 -0.899659,7.712643 -1.654797,14.045912 -1.678089,14.07393 C 72.423831,44.457027 54.39378,54.94813 54.26025,54.94813 c -0.08736,0 -0.158846,-4.186525 -0.158846,-9.303387 z m 0.02768,-18.654947 c 0.01522,-2.651221 0.11875,-4.583764 0.230065,-4.29454 0.111314,0.289224 1.113976,2.458405 2.228137,4.820402 l 2.025751,4.294541 -2.255816,0 -2.255815,0 0.02766,-4.820403 z"
       id="path5759"
       inkscape:connector-curvature="0" />
  </g>
</svg>
